<?xml version="1.0" encoding="UTF-8"?>
<svg version="1.1" xmlns="http://www.w3.org/2000/svg" width="500" height="500">
<path d="M0 0 C165 0 330 0 500 0 C500 165 500 330 500 500 C335 500 170 500 0 500 C0 335 0 170 0 0 Z " fill="#FEFEFE" transform="translate(0,0)"/>
<path d="M0 0 C2.30304318 12.94090932 3.30946753 25.62851091 3.3125 38.75 C3.31572266 39.43368652 3.31894531 40.11737305 3.32226562 40.82177734 C3.36850618 56.87110375 0.9223199 71.57115322 -10 84 C-10.52335937 84.61617188 -11.04671875 85.23234375 -11.5859375 85.8671875 C-16.9450413 91.72949353 -22.93457187 95.84606904 -31.0234375 96.375 C-36.98589049 96.5387178 -42.50069973 96.64859916 -48 94 C-48.86951242 82.64803226 -47.02734791 74.22048863 -42 64 C-41.67854004 63.33242676 -41.35708008 62.66485352 -41.02587891 61.97705078 C-35.6583011 50.95281164 -29.14345667 40.80331878 -22.18579102 30.72314453 C-21.10923109 29.15873029 -20.05340082 27.58010123 -19 26 C-37.69525099 43.60972029 -51.30848237 63.01609245 -58 88 C-64.76655457 84.26307003 -71.28901712 78.07698962 -73.59375 70.48046875 C-75.58775638 58.30552598 -74.25240673 47.95970426 -67.35546875 37.5078125 C-65.66216325 35.23733063 -63.88402079 33.11387953 -62 31 C-61.50113281 30.40832031 -61.00226563 29.81664062 -60.48828125 29.20703125 C-47.96663086 15.42375362 -18.8684684 0 0 0 Z " fill="#92C731" transform="translate(162,215)"/>
<path d="M0 0 C20.02397512 6.21976684 43.71612488 15.94187624 57 33 C58.03935294 34.97983471 59.04666294 36.97734124 60 39 C59.18917969 39.4125 58.37835938 39.825 57.54296875 40.25 C47.7309104 45.36734824 38.74794318 51.00212316 31 59 C30.34 59 29.68 59 29 59 C27.85839844 57.41455078 27.85839844 57.41455078 26.609375 55.1953125 C26.14958252 54.38811768 25.68979004 53.58092285 25.21606445 52.74926758 C24.73226318 51.88325928 24.24846191 51.01725098 23.75 50.125 C22.75967522 48.38119191 21.76879422 46.63769957 20.77734375 44.89453125 C20.30022949 44.05100098 19.82311523 43.2074707 19.33154297 42.33837891 C16.96339126 38.17956756 14.48273637 34.09114026 12 30 C15.57284925 40.84820098 19.23847063 51.25518871 24.8125 61.25 C26 64 26 64 25.80859375 66.09765625 C24.90729029 68.21811415 24.00258801 70.33383135 23.0625 72.4375 C20.58839036 78.45633399 19.76580992 84.57122724 19 91 C7.61390778 87.49658701 2.68224313 78.8947411 -3 69 C-11.73040647 49.67860862 -7.60340009 20.49196413 -1 1 C-0.67 0.67 -0.34 0.34 0 0 Z " fill="#79A933" transform="translate(64,185)"/>
<path d="M0 0 C4.00151808 -0.14935324 8.00193764 -0.2576761 12.00561523 -0.32958984 C13.36462697 -0.35959295 14.72344781 -0.40041185 16.08178711 -0.45263672 C28.81803026 -0.92971964 28.81803026 -0.92971964 33.37109375 2.8984375 C37.18593016 6.91784734 37.28493446 10.11866513 37.21484375 15.5234375 C36.93315491 18.77054159 36.15142982 20.55182123 34 23 C26.22505087 28.72890989 17.04265433 27.14827357 8 26 C11.56098963 27.78049481 15.85353322 27.7016315 19.79492188 28.07421875 C26.01849831 28.75991625 30.83893346 30.39069513 35.9375 34.1875 C38.33096418 37.45131479 38.62661845 39.1323778 38.359375 43.07421875 C37.64125479 46.92240642 35.89299445 49.21862985 33 51.75 C29.11092849 54.18066969 25.84561903 54.11722978 21.36328125 54.09765625 C20.06455078 54.09443359 18.76582031 54.09121094 17.42773438 54.08789062 C16.05598892 54.07953531 14.68424413 54.07107037 13.3125 54.0625 C11.92903805 54.05748335 10.54557437 54.05292073 9.16210938 54.04882812 C5.77469605 54.03702529 2.38736967 54.02056019 -1 54 C-0.75601219 53.16604706 -0.75601219 53.16604706 -0.50709534 52.31524658 C0.04622821 49.78893574 0.12005479 47.54169819 0.11352539 44.95605469 C0.11344986 43.95531921 0.11337433 42.95458374 0.11329651 41.92352295 C0.10813522 40.85047913 0.10297394 39.7774353 0.09765625 38.671875 C0.0962413 37.56773254 0.09482635 36.46359009 0.09336853 35.32598877 C0.08777258 31.80063158 0.07522079 28.27533798 0.0625 24.75 C0.05748448 22.35937592 0.05292166 19.96875084 0.04882812 17.578125 C0.03780447 11.71872832 0.02107033 5.8593687 0 0 Z " fill="#3EB473" transform="translate(203,201)"/>
<path d="M0 0 C1.875 0.3125 1.875 0.3125 4 1 C6 4 6 4 5.625 6.1875 C5.41875 6.785625 5.2125 7.38375 5 8 C2.36 8 -0.28 8 -3 8 C-2.21625 8.763125 -1.4325 9.52625 -0.625 10.3125 C2.85623004 13.87661647 4.28978134 15.88255065 4.3125 20.8125 C4.16003918 26.98267921 2.5942206 30.36954711 -1.75 34.8125 C-5.32281573 37.21727982 -7.74386442 37.74463186 -12 38 C-11.67 38.66 -11.34 39.32 -11 40 C-8.81837057 40.72736913 -8.81837057 40.72736913 -6.25 41.3125 C-1.64859293 42.63944809 1.2692864 43.85684832 4 48 C4.0699746 51.98855197 3.6648875 54.12139866 1.25 57.3125 C-5.36853918 62.27640439 -13.12572269 61.65350047 -21 61 C-26.08441506 59.80023369 -29.79185426 58.12184961 -33.625 54.5625 C-35.96209913 50.20699708 -35.96209913 50.20699708 -35 47 C-30.3455038 42.81553913 -27.38712232 42 -21 42 C-20.67 46.62 -20.34 51.24 -20 56 C-15.9899066 56.17864631 -15.9899066 56.17864631 -12 56 C-9.70073702 54.12953174 -9.70073702 54.12953174 -9.75 51.125 C-9.99969952 48.00375595 -10.34350361 46.59269239 -12 44 C-13.91485682 42.65061463 -13.91485682 42.65061463 -16.2109375 41.6328125 C-17.46003906 41.01599609 -17.46003906 41.01599609 -18.734375 40.38671875 C-20.48539535 39.55006258 -22.23798884 38.71669036 -23.9921875 37.88671875 C-29.28294221 35.26583563 -32.29440978 33.30990166 -35 28 C-36.24266632 24.27200105 -36.52902513 20.87217006 -36 17 C-33.35234054 11.90080401 -29.94451008 8.51751424 -24.83984375 5.88671875 C-20.54535294 4.54579796 -16.31893861 4.94912016 -11.8828125 5.16601562 C-7.34994732 5.29002797 -4.59320722 4.82420643 -1 2 C-0.67 1.34 -0.34 0.68 0 0 Z " fill="#42B576" transform="translate(341,211)"/>
<path d="M0 0 C4.71002453 3.31864004 8.66450563 7.01990918 9.75 12.875 C10.45362678 20.19542476 9.32301768 25.713864 4.5625 31.5625 C-0.49639408 35.72203513 -5.52231468 38.6536455 -12.23828125 38.2578125 C-19.02513782 36.966333 -23.39225761 33.43468756 -27.25 27.875 C-29.76233458 23.44850574 -29.90587927 18.83975703 -29.25 13.875 C-27.06754492 6.68727368 -22.24388428 2.1872488 -15.875 -1.5 C-10.10087663 -2.87479128 -5.23440233 -3.07731404 0 0 Z " fill="#42B576" transform="translate(292.25,218.125)"/>
<path d="M0 0 C0.01030746 0.65954681 0.02061493 1.31909363 0.03123474 1.99862671 C0.13915379 8.8439149 0.25376339 15.68906754 0.37231445 22.53417969 C0.41571022 25.09111707 0.4573818 27.64808431 0.49731445 30.20507812 C0.55490469 33.87378959 0.61863138 37.54235011 0.68359375 41.2109375 C0.70030624 42.35992523 0.71701874 43.50891296 0.73423767 44.69271851 C0.75418289 45.7536673 0.77412811 46.81461609 0.79467773 47.90771484 C0.81799416 49.31336197 0.81799416 49.31336197 0.84178162 50.74740601 C0.85779985 53.03513791 0.85779985 53.03513791 2 55 C-0.47923801 55.02685095 -2.9581884 55.04676547 -5.4375 55.0625 C-6.14455078 55.07087891 -6.85160156 55.07925781 -7.58007812 55.08789062 C-9.38693559 55.09653588 -11.19387603 55.05220011 -13 55 C-14.55115338 53.44884662 -14.1475318 51.96189933 -14.17358398 49.80322266 C-14.18707382 48.91204742 -14.20056366 48.02087219 -14.21446228 47.10269165 C-14.22490067 46.13294403 -14.23533905 45.16319641 -14.24609375 44.1640625 C-14.27903203 42.13020403 -14.31224368 40.09634997 -14.34570312 38.0625 C-14.39315262 34.8408513 -14.43757039 31.61922053 -14.47680664 28.39746094 C-14.51645604 25.298635 -14.56802063 22.20018346 -14.62109375 19.1015625 C-14.6295079 18.13586334 -14.63792206 17.17016418 -14.64659119 16.17520142 C-14.67155418 14.82898209 -14.67155418 14.82898209 -14.69702148 13.45556641 C-14.70732895 12.66582428 -14.71763641 11.87608215 -14.72825623 11.06240845 C-14.88618198 8.69270065 -14.88618198 8.69270065 -17 6 C-15.11076602 4.98758753 -13.21330056 3.99052575 -11.3125 3 C-10.25675781 2.443125 -9.20101562 1.88625 -8.11328125 1.3125 C-5.01696156 0.00715067 -3.28275003 -0.11680652 0 0 Z " fill="#3BB371" transform="translate(259,200)"/>
<path d="M0 0 C6.09669047 -0.63507192 10.15006154 -0.05918817 15.20703125 3.50390625 C19.83542795 7.36594532 22.61692123 11.0145074 23.203125 17.11328125 C23.34571405 23.80308422 22.11490948 28.55115744 17.625 33.75 C15.12211154 35.89533297 13.00728964 37.64671966 10 39 C7.1875 38.6875 7.1875 38.6875 5 38 C6.485 37.505 6.485 37.505 8 37 C10.65892818 29.02321546 10.07160124 17.43608056 6.8515625 9.671875 C5.27857192 6.5803204 5.27857192 6.5803204 3 4 C1.68 4 0.36 4 -1 4 C-0.67 2.68 -0.34 1.36 0 0 Z " fill="#41B575" transform="translate(279,216)"/>
<path d="M0 0 C2.56886775 0.37245844 3.72128397 0.67846237 5.44921875 2.671875 C5.85785156 3.35765625 6.26648438 4.0434375 6.6875 4.75 C7.10386719 5.42546875 7.52023437 6.1009375 7.94921875 6.796875 C10.36676916 11.8656424 10.18280547 17.12301187 10.1875 22.625 C10.19974609 23.388125 10.21199219 24.15125 10.22460938 24.9375 C10.23482665 28.82006322 10.20214051 30.69678923 8 34 C3.44634066 33.5077125 3.44634066 33.5077125 1.4375 31.22265625 C-3.68581631 23.30100684 -4.09729036 13.14408632 -3 4 C-1.4765625 1.5546875 -1.4765625 1.5546875 0 0 Z " fill="#F8FAF9" transform="translate(279,219)"/>
<path d="M0 0 C2.3125 0.0625 2.3125 0.0625 5 1 C9.00527002 7.07696141 8.64765092 13.93794337 8 21 C7.3658524 23.96918723 6.7086522 25.40756217 5 28 C2.3125 28.9375 2.3125 28.9375 0 29 C-3.13304709 23.83627424 -3.46145392 19.79235148 -3.375 13.9375 C-3.38660156 13.14794922 -3.39820313 12.35839844 -3.41015625 11.54492188 C-3.38656435 6.85406489 -2.93949458 3.86489102 0 0 Z " fill="#F8FBF9" transform="translate(323,219)"/>
<path d="M0 0 C4.52671196 0.53255435 7.4200555 2.21559872 11 5 C13.33921485 8.18983843 13.41327207 11.11524253 13 15 C11.875 16.875 11.875 16.875 10 18 C6.9377347 18.38278316 4.93350024 18.63321345 2.32421875 16.86328125 C0.40678084 14.1652934 0.70714707 12.07844078 0.8125 8.8125 C0.83957031 7.72582031 0.86664063 6.63914062 0.89453125 5.51953125 C0.92933594 4.68808594 0.96414063 3.85664063 1 3 C-0.32 2.67 -1.64 2.34 -3 2 C-2.01 2 -1.02 2 0 2 C0 1.34 0 0.68 0 0 Z " fill="#F2F8F5" transform="translate(319,250)"/>
<path d="M0 0 C0.66 0.66 1.32 1.32 2 2 C1.9375 3.875 1.9375 3.875 1 6 C-3.03556638 9.71696903 -6.11338991 11.14261441 -11.5625 11.1875 C-12.74005859 11.20876953 -12.74005859 11.20876953 -13.94140625 11.23046875 C-16 11 -16 11 -18 9 C-18 6.625 -18 6.625 -17 4 C-12.1056096 -0.76559066 -6.49280504 -0.91238764 0 0 Z " fill="#F5F8F6" transform="translate(225,212)"/>
<path d="M0 0 C6.96866362 1.25205304 14.84363228 2.84363228 20 8 C20.1875 10.5625 20.1875 10.5625 20 13 C19 14 19 14 16 14.5625 C11.11787718 14.53223891 8.39182319 11.32794497 5.015625 8.140625 C0 2.81395349 0 2.81395349 0 0 Z " fill="#F3F7F5" transform="translate(207,230)"/>
<path d="M0 0 C0.99 0 1.98 0 3 0 C3.11593506 0.65597168 3.23187012 1.31194336 3.35131836 1.98779297 C3.87683919 4.95077449 4.40710918 7.91288654 4.9375 10.875 C5.11990234 11.90753906 5.30230469 12.94007813 5.49023438 14.00390625 C5.66748047 14.99003906 5.84472656 15.97617187 6.02734375 16.9921875 C6.18968506 17.90339355 6.35202637 18.81459961 6.51928711 19.75341797 C6.90673787 22.02194696 6.90673787 22.02194696 8 24 C6.35 24 4.7 24 3 24 C2.94465088 23.45061768 2.88930176 22.90123535 2.83227539 22.33520508 C2.57818747 19.82737577 2.32037701 17.31994239 2.0625 14.8125 C1.97548828 13.94818359 1.88847656 13.08386719 1.79882812 12.19335938 C1.3732769 8.0796975 0.92796186 4.03788809 0 0 Z " fill="#333333" transform="translate(281,261)"/>
<path d="M0 0 C2.58926331 2.58926331 2.37398043 4.02705279 2.625 7.625 C2.69976562 8.62789063 2.77453125 9.63078125 2.8515625 10.6640625 C2.92503906 11.82035156 2.92503906 11.82035156 3 13 C1.68 13 0.36 13 -1 13 C-1 15.64 -1 18.28 -1 21 C-1.99 21 -2.98 21 -4 21 C-3.52753292 17.6865079 -3.04590875 14.37441206 -2.5625 11.0625 C-2.36043945 9.64420898 -2.36043945 9.64420898 -2.15429688 8.19726562 C-2.02216797 7.29814453 -1.89003906 6.39902344 -1.75390625 5.47265625 C-1.57323608 4.22367554 -1.57323608 4.22367554 -1.38891602 2.94946289 C-1 1 -1 1 0 0 Z " fill="#626262" transform="translate(281,264)"/>
<path d="M0 0 C0.99 0.33 1.98 0.66 3 1 C3 8.59 3 16.18 3 24 C1.68 23.67 0.36 23.34 -1 23 C-0.67 15.41 -0.34 7.82 0 0 Z " fill="#141414" transform="translate(291,261)"/>
<path d="M0 0 C1.19238281 0.0721875 2.38476562 0.144375 3.61328125 0.21875 C5.17968471 0.31254661 6.74609111 0.40629405 8.3125 0.5 C9.49102539 0.57154297 9.49102539 0.57154297 10.69335938 0.64453125 C11.8293457 0.71220703 11.8293457 0.71220703 12.98828125 0.78125 C14.03302612 0.8440918 14.03302612 0.8440918 15.09887695 0.90820312 C16.73096966 0.98700971 18.36600579 1 20 1 C20.33 2.32 20.66 3.64 21 5 C18.06027779 4.74528401 15.12435936 4.47200125 12.1875 4.1875 C11.35412109 4.11724609 10.52074219 4.04699219 9.66210938 3.97460938 C8.85966797 3.89404297 8.05722656 3.81347656 7.23046875 3.73046875 C6.49207764 3.66239014 5.75368652 3.59431152 4.99291992 3.52416992 C2.58161471 2.88995795 1.5934788 1.87558847 0 0 Z " fill="#DAE9E1" transform="translate(210,226)"/>
<path d="M0 0 C0 3.7226489 -0.98537259 4.67462429 -3.25 7.5625 C-4.15492188 8.74005859 -4.15492188 8.74005859 -5.078125 9.94140625 C-6.99697677 11.9967617 -8.45177474 12.89820588 -11 14 C-12.35113205 14.97581759 -13.68946944 15.97029741 -15 17 C-13.67879172 14.06769807 -12.25361803 12.01335101 -9.9609375 9.765625 C-9.38085938 9.19199219 -8.80078125 8.61835938 -8.203125 8.02734375 C-7.59984375 7.44082031 -6.9965625 6.85429687 -6.375 6.25 C-5.76398438 5.64800781 -5.15296875 5.04601562 -4.5234375 4.42578125 C-3.02011376 2.94594695 -1.51065144 1.47235324 0 0 Z " fill="#F5FAED" transform="translate(144,239)"/>
<path d="M0 0 C-2.75 3.875 -2.75 3.875 -5 5 C-7.125 4.0625 -7.125 4.0625 -9 3 C-9 2.34 -9 1.68 -9 1 C-2.25 -1.125 -2.25 -1.125 0 0 Z " fill="#E5EEE9" transform="translate(338,248)"/>
<path d="M0 0 C3.3 0.33 6.6 0.66 10 1 C8.68 2.65 7.36 4.3 6 6 C4 4 2 2 0 0 Z " fill="#D7E9DF" transform="translate(336,218)"/>
<path d="M0 0 C2.12508244 3.18762365 2.5020163 5.26512223 3 9 C1.68 9 0.36 9 -1 9 C-0.67 6.03 -0.34 3.06 0 0 Z " fill="#ECECEC" transform="translate(281,267)"/>
<path d="M0 0 C0 4.38968456 -2.12805101 5.76905739 -5 9 C-5.66 8.34 -6.32 7.68 -7 7 C-4.69 4.69 -2.38 2.38 0 0 Z " fill="#EEF6E0" transform="translate(144,239)"/>
<path d="M0 0 C0.99 0 1.98 0 3 0 C3 2.97 3 5.94 3 9 C1.35649921 5.71299843 0.58678331 3.52069985 0 0 Z " fill="#050505" transform="translate(281,261)"/>
</svg>
